<svg width="1120" height="329" viewBox="0 0 1120 329" fill="none" xmlns="http://www.w3.org/2000/svg">
<mask id="mask0" mask-type="alpha" maskUnits="userSpaceOnUse" x="0" y="0" width="1120" height="329">
<mask id="mask1" maskUnits="userSpaceOnUse" x="0" y="0" width="1120" height="329">
<rect width="1120" height="329" rx="10" fill="white"/>
</mask>
<g mask="url(#mask1)">
<rect width="1234.92" height="966.41" transform="matrix(-0.960998 0.276554 0.276554 0.960998 992.752 -600)" fill="#DD7AD1"/>
</g>
</mask>
<g mask="url(#mask0)">
<path d="M486 96.7084C298.8 51.9084 84 78.0417 0 96.7084V984.708H1440C1448 678.042 1459.2 71.1084 1440 96.7084C1416 128.708 1360 96.7084 1154 32.7084C948 -31.2915 720 152.708 486 96.7084Z" fill="url(#paint0_linear)"/>
<path d="M272.57 198.632C80.4153 187.349 -126.475 250.739 -205.901 283.845L-50.204 1158.09L1367.49 905.607C1321.6 602.289 1226.21 2.79358 1211.79 31.3634C1193.77 67.0757 1133.03 45.3902 919.001 18.5005C704.971 -8.38911 512.764 212.737 272.57 198.632Z" fill="url(#paint1_linear)"/>
<path d="M738.283 243.675C914.729 166.746 1130.78 154.813 1216.75 158.462L1372.45 1032.71L-45.2411 1285.19C-106.886 984.674 -224.329 389.107 -200.938 410.944C-171.699 438.24 -122.177 396.917 69.4101 297.789C260.998 198.662 517.727 339.835 738.283 243.675Z" fill="url(#paint2_linear)"/>
</g>
<defs>
<linearGradient id="paint0_linear" x1="725.301" y1="19" x2="725.301" y2="984.708" gradientUnits="userSpaceOnUse">
<stop stop-color="#DD7AD1" stop-opacity="0.12"/>
<stop offset="1" stop-color="#FFF3F9" stop-opacity="0"/>
</linearGradient>
<linearGradient id="paint1_linear" x1="494.539" y1="80.1702" x2="663.861" y2="1030.92" gradientUnits="userSpaceOnUse">
<stop stop-color="#DD7AD1" stop-opacity="0.12"/>
<stop offset="1" stop-color="#FFF3F9" stop-opacity="0"/>
</linearGradient>
<linearGradient id="paint2_linear" x1="489.065" y1="209.128" x2="658.387" y2="1159.88" gradientUnits="userSpaceOnUse">
<stop stop-color="#DD7AD1" stop-opacity="0.12"/>
<stop offset="1" stop-color="#FFF3F9" stop-opacity="0"/>
</linearGradient>
</defs>
</svg>
