<svg width="149" height="145" viewBox="0 0 149 145" fill="none" xmlns="http://www.w3.org/2000/svg">
<rect y="49" width="96" height="96" rx="48" fill="#FFA0F3"/>
<path d="M147.107 1.88925C147.1 1.88245 147.092 1.87651 147.086 1.86971C145.886 0.681104 144.233 0 142.546 0H142.538C141.08 0 139.652 0.50127 138.52 1.41007C123.099 13.7266 107.622 26.4396 92.5165 39.1951C88.8434 42.2964 85.1671 45.4221 81.4943 48.5651L39.5581 6.62951C35.4171 2.48907 28.6797 2.48964 24.539 6.62951L4.62213 26.5466C3.79262 27.3764 3.79262 28.7211 4.62213 29.5506C5.45163 30.3798 6.79656 30.3798 7.62578 29.5506L21.5353 15.6413L24.5749 18.6809L10.6657 32.5902C9.83618 33.42 9.83618 34.7646 10.6657 35.5941C11.0803 36.0087 11.624 36.216 12.1675 36.216C12.711 36.216 13.2547 36.0087 13.6693 35.5941L27.5789 21.6849L30.6185 24.7245L16.709 38.6337C15.8795 39.4635 15.8795 40.8082 16.709 41.6377C17.1236 42.0523 17.6673 42.2596 18.2108 42.2596C18.7543 42.2596 19.298 42.0523 19.7126 41.6377L33.6221 27.7282L36.6618 30.7678L22.7525 44.677C21.923 45.5068 21.923 46.8515 22.7525 47.681C23.1671 48.0956 23.7109 48.3029 24.2543 48.3029C24.7978 48.3029 25.3416 48.0956 25.7562 47.681L39.6654 33.7717L42.705 36.8113L28.7958 50.7206C27.9663 51.5504 27.9663 52.895 28.7958 53.7245C29.2104 54.1391 29.7542 54.3464 30.2976 54.3464C30.8411 54.3464 31.3848 54.1391 31.7994 53.7245L45.7087 39.8153L48.7483 42.8549L34.8391 56.7641C34.0096 57.5939 34.0096 58.9386 34.8391 59.7681C35.2537 60.1827 35.7974 60.39 36.3409 60.39C36.8844 60.39 37.4281 60.1827 37.8427 59.7681L51.752 45.8588L54.7916 48.8984L40.8823 62.8077C40.0528 63.6375 40.0528 64.9821 40.8823 65.8116C41.297 66.2262 41.8407 66.4335 42.3842 66.4335C42.9276 66.4335 43.4714 66.2262 43.886 65.8116L57.7952 51.9024L60.8352 54.9423L46.9259 68.8515C46.0964 69.6813 46.0964 71.026 46.9259 71.8555C47.3405 72.2701 47.8843 72.4774 48.4277 72.4774C48.9712 72.4774 49.5149 72.2701 49.9296 71.8555L63.8391 57.9459L66.9858 61.0926C60.4639 66.7723 53.9757 72.4856 47.5606 78.206C47.5577 78.206 47.5577 78.206 47.5577 78.2091C45.6521 79.9041 43.5733 81.8565 41.5227 83.7058C40.2664 84.6146 40.5057 86.2122 41.129 86.8355C41.129 86.8355 41.129 86.8383 41.1318 86.8383C43.1766 89.3135 44.3066 92.4741 44.3066 95.742C44.3066 99.5624 42.8367 103.136 40.1664 105.804C40.1395 105.831 33.7881 112.183 33.7603 112.21C24.5237 121.662 8.25732 115.212 8.24798 101.826C8.25364 93.6987 14.8174 86.9862 23.1102 86.9802C27.627 86.9831 31.8439 88.9938 34.6788 92.4914C35.4477 93.439 36.8594 93.5415 37.7544 92.7293C37.7657 92.7208 37.7742 92.7123 37.7855 92.7009L37.8053 92.6837C38.8002 91.7893 38.73 90.1776 37.6184 89.3815C33.9878 85.1561 28.706 82.7322 23.1244 82.7322H23.096C12.4765 82.7322 3.98775 91.3798 4.00021 101.826C3.99087 109.697 8.80107 116.65 15.9171 119.54C20.1425 121.251 24.7712 121.369 28.9524 120.029C24.9672 132.426 34.2424 145 47.1338 145H47.1564C57.6905 145 66.2755 136.472 66.2639 125.895C66.2695 120.868 64.3324 116.125 60.8179 112.533C60.8199 112.531 65.1549 107.603 65.1549 107.603C72.807 99.088 80.3762 90.5341 87.8536 81.9596L91.0538 85.1598L77.1445 99.069C76.315 99.8988 76.315 101.243 77.1445 102.073C77.5594 102.488 78.1032 102.695 78.6467 102.695C79.1901 102.695 79.7339 102.488 80.1488 102.073L94.058 88.1637L97.0976 91.2034L83.1884 105.113C82.3589 105.942 82.3589 107.287 83.1884 108.117C83.6033 108.531 84.147 108.738 84.6905 108.738C85.234 108.738 85.7777 108.531 86.1926 108.117L100.102 94.2073L103.141 97.2466L89.2319 111.156C88.4024 111.986 88.4024 113.33 89.2319 114.16C89.6468 114.574 90.1906 114.782 90.7341 114.782C91.2775 114.782 91.8213 114.574 92.2362 114.16L106.145 100.251L109.185 103.29L95.2755 117.199C94.446 118.029 94.446 119.374 95.2755 120.203C95.6904 120.618 96.2342 120.825 96.7776 120.825C97.3211 120.825 97.8648 120.618 98.2797 120.203L112.189 106.294L115.229 109.333L101.319 123.243C100.49 124.073 100.49 125.417 101.319 126.247C101.734 126.661 102.278 126.869 102.821 126.869C103.365 126.869 103.909 126.661 104.324 126.247L118.233 112.337L121.272 115.377L107.363 129.286C106.533 130.116 106.533 131.46 107.363 132.29C107.778 132.705 108.322 132.912 108.865 132.912C109.408 132.912 109.952 132.705 110.367 132.29L124.276 118.381L127.316 121.42L113.406 135.329C112.577 136.159 112.577 137.504 113.406 138.333C113.821 138.748 114.365 138.955 114.909 138.955C115.452 138.955 115.996 138.748 116.411 138.333L130.32 124.424L133.359 127.463L119.45 141.373C118.621 142.202 118.621 143.547 119.45 144.376C119.865 144.791 120.409 144.998 120.952 144.998C121.496 144.998 122.039 144.791 122.454 144.376L137.863 128.967C137.864 128.967 137.865 128.966 137.866 128.965C137.866 128.965 137.867 128.964 137.868 128.963L142.371 124.459C144.377 122.453 145.482 119.786 145.482 116.95C145.482 114.113 144.377 111.446 142.371 109.44L100.389 67.4604C116.674 48.4626 132.462 29.4073 147.588 10.4757C149.641 7.90675 149.434 4.21548 147.107 1.88925ZM24.5392 12.6374L27.5429 9.63373C30.0272 7.14947 34.0699 7.14947 36.5544 9.63373L78.2612 51.3408C75.5705 53.6523 72.8821 55.97 70.199 58.2977L24.5392 12.6374ZM139.367 112.446C140.57 113.649 141.233 115.249 141.233 116.951C141.233 118.653 140.57 120.254 139.367 121.457L136.363 124.46C134.959 123.058 93.6629 81.7608 90.6494 78.7475C92.9801 76.0647 95.303 73.3802 97.6145 70.6941L139.367 112.446ZM63.177 103.444C62.1475 102.656 59.4027 101.291 58.9462 97.416C58.8187 96.3458 57.9153 95.5412 56.842 95.5412C55.5588 95.5412 54.5809 96.6556 54.7265 97.9147C54.7293 97.9147 54.7293 97.9147 54.7293 97.9147C55.1343 101.378 57.0147 104.44 59.8864 106.311C60.0365 106.411 60.1866 106.512 60.3424 106.626C58.8692 108.307 57.6531 109.722 56.2586 111.262C55.8706 111.692 55.6724 112.273 55.7177 112.85C55.7602 113.428 56.0462 113.972 56.4965 114.337C60.0612 117.247 62.0127 121.435 62.0161 125.895C62.0102 134.081 55.4158 140.746 47.1482 140.752C38.9767 140.741 32.2803 134.155 32.2803 125.895C32.29 119.173 36.5417 115.572 36.8682 115.111L43.1695 108.809C46.641 105.338 48.5557 100.641 48.5557 95.742C48.5586 92.1623 47.5334 88.7044 45.5965 85.748C47.2595 84.2272 48.7058 82.8777 50.3855 81.3807L50.394 81.3694C96.4468 40.3072 140.629 5.00958 141.459 4.53408C140.889 5.10361 58.0173 87.94 57.635 88.3708C56.8561 89.2487 56.9383 90.5939 57.8134 91.3699C58.693 92.1532 60.0402 92.0615 60.8125 91.1915C61.0665 90.902 143.856 8.14294 144.463 7.53604C144.289 7.84162 110.083 51.1689 63.177 103.444Z" fill="url(#paint0_linear)"/>
<path d="M30.6282 94.3282C23.9285 87.6287 12.497 92.4562 12.4976 101.836C12.4976 104.671 13.6029 107.338 15.61 109.344C17.6805 111.415 20.3992 112.449 23.1191 112.449C25.8381 112.449 28.558 111.414 30.6282 109.344C34.7735 105.2 34.774 98.4728 30.6282 94.3282ZM27.6249 106.34C25.1403 108.824 21.0979 108.824 18.6133 106.34C14.6343 102.362 17.4205 95.4689 23.1191 95.4689C28.8341 95.4692 31.5857 102.38 27.6249 106.34Z" fill="url(#paint1_linear)"/>
<path d="M47.1489 115.278C42.7816 115.278 39.03 117.786 37.358 121.822C35.6777 125.879 36.5523 130.317 39.64 133.404C41.691 135.455 44.333 136.53 47.0614 136.53C48.4397 136.53 49.8404 136.255 51.197 135.693C55.2505 134.014 57.7687 130.26 57.7687 125.896C57.7684 120.041 53.0047 115.278 47.1489 115.278ZM49.5708 131.769C47.6705 132.556 44.8529 132.61 42.6431 130.4C40.4321 128.19 40.4908 125.36 41.2823 123.448C42.0676 121.552 44.0212 119.526 47.1486 119.526C50.662 119.526 53.5204 122.383 53.5204 125.896C53.5204 129.02 51.4802 130.978 49.5708 131.769Z" fill="url(#paint2_linear)"/>
<defs>
<linearGradient id="paint0_linear" x1="76.5" y1="0" x2="76.5" y2="145" gradientUnits="userSpaceOnUse">
<stop stop-color="#A44298"/>
<stop offset="1" stop-color="#DD7AD1"/>
</linearGradient>
<linearGradient id="paint1_linear" x1="23.1175" y1="91.2091" x2="23.1175" y2="112.449" gradientUnits="userSpaceOnUse">
<stop stop-color="#A44298"/>
<stop offset="1" stop-color="#DD7AD1"/>
</linearGradient>
<linearGradient id="paint2_linear" x1="47.1427" y1="115.278" x2="47.1427" y2="136.53" gradientUnits="userSpaceOnUse">
<stop stop-color="#A44298"/>
<stop offset="1" stop-color="#DD7AD1"/>
</linearGradient>
</defs>
</svg>
