<svg width="29" height="29" viewBox="0 0 29 29" fill="none" xmlns="http://www.w3.org/2000/svg">
<path d="M27.5636 0.509766H1.28044C0.648359 0.509766 0.137695 1.00396 0.137695 1.61565V27.0509C0.137695 27.6626 0.648359 28.1568 1.28044 28.1568H27.5636C28.1957 28.1568 28.7063 27.6626 28.7063 27.0509V1.61565C28.7063 1.00396 28.1957 0.509766 27.5636 0.509766ZM26.4208 25.9451H19.8465V17.4505H23.5604L24.1175 13.2793H19.8465V10.6148C19.8465 9.40521 20.1929 8.58271 21.982 8.58271H24.2639V4.85035C23.8675 4.79852 22.5141 4.68447 20.9357 4.68447C17.6431 4.68447 15.3898 6.63013 15.3898 10.2001V13.2758H11.6687V17.447H15.3933V25.9451H2.42319V2.72153H26.4208V25.9451Z" fill="#FFF3F9"/>
</svg>
