<svg width="148" height="145" viewBox="0 0 148 145" fill="none" xmlns="http://www.w3.org/2000/svg">
<rect y="46" width="96" height="96" rx="48" fill="#FFA0F3"/>
<path d="M121.882 76.5897C120.695 76.5897 119.732 77.5521 119.732 78.7392C119.732 80.2441 118.508 81.4684 117.003 81.4684C115.499 81.4684 114.274 80.2441 114.274 78.7392C114.274 77.5518 113.312 76.5897 112.125 76.5897C110.937 76.5897 109.975 77.5521 109.975 78.7392C109.975 82.6145 113.128 85.7673 117.003 85.7673C120.878 85.7673 124.031 82.6142 124.031 78.7392C124.031 77.5515 123.069 76.5897 121.882 76.5897Z" fill="url(#paint0_linear)"/>
<path d="M142.058 76.9408L136.008 75.0028C135.233 74.7544 134.623 74.1359 134.375 73.3481C133.1 69.2942 131.176 65.4883 128.656 62.0358C127.507 60.4622 126.23 58.9595 124.835 57.529C125.728 53.6135 126.213 49.1822 126.15 45.3538C126.06 39.8771 124.966 36.665 122.804 35.533C121.64 34.9226 118.098 33.0682 98.9238 41.8454C98.4697 42.0531 98.0456 42.309 97.653 42.6021C96.3604 42.2547 95.0392 41.9334 93.7099 41.6449C93.5498 41.61 93.3847 41.5791 93.2235 41.5451C94.7772 38.1509 95.6845 34.4645 95.855 30.6589C95.908 29.4727 94.9898 28.4682 93.8036 28.4154C92.6206 28.3566 91.6129 29.2803 91.5601 30.4665C91.28 36.7238 88.6843 42.6113 84.2516 47.0443C81.6031 49.6928 78.502 51.6166 75.1969 52.8282C69.4652 52.024 63.627 52.024 57.8953 52.8282C54.59 51.6166 51.4891 49.6928 48.8406 47.0443C44.1114 42.315 41.5067 36.0271 41.5067 29.3388C41.5067 22.6502 44.1114 16.3626 48.8406 11.6334C53.5699 6.9038 59.8581 4.29915 66.5461 4.29915C73.2341 4.29915 79.5223 6.9038 84.2516 11.6334C86.1521 13.5338 87.7225 15.7026 88.9194 18.0788C89.4534 19.1392 90.7461 19.5661 91.8062 19.0319C92.8666 18.4982 93.2933 17.2056 92.7593 16.1454C91.3565 13.359 89.5169 10.8184 87.2918 8.59311C81.7505 3.05178 74.3829 0 66.5464 0C58.71 0 51.3423 3.05178 45.801 8.59311C40.2597 14.1347 37.2079 21.5021 37.2079 29.3385C37.2079 37.175 40.2597 44.5427 45.801 50.084C47.3994 51.6824 49.1384 53.057 50.9777 54.2086C50.9783 54.2086 50.9788 54.2083 50.9794 54.2083C49.6429 54.5556 48.3165 54.9457 47.0048 55.3841C45.8789 55.7606 45.2713 56.9783 45.6478 58.1045C46.024 59.2304 47.2422 59.8379 48.3678 59.4617C60.0903 55.5428 73.0025 55.5428 84.725 59.4617C84.9512 59.5373 85.1808 59.5731 85.4067 59.5731C86.3058 59.5731 87.1441 59.0042 87.445 58.1045C87.8215 56.9785 87.214 55.7606 86.088 55.3841C84.7763 54.9457 83.4499 54.5554 82.1134 54.2083C82.114 54.2083 82.1146 54.2086 82.1152 54.2086C83.9548 53.057 85.6934 51.6824 87.2918 50.084C88.706 48.6699 89.9542 47.1257 91.038 45.4845C91.6305 45.5996 92.2187 45.7202 92.7983 45.846C93.5702 46.0136 94.3387 46.1936 95.1003 46.3825C95.0764 46.476 95.0518 46.5692 95.0319 46.6641C93.9836 51.6389 94.0517 56.0387 95.2342 59.7407C96.2969 63.0683 98.215 65.7641 100.934 67.7537C104.14 70.0984 108.009 71.1113 111.515 71.1113C114.153 71.1113 116.585 70.5372 118.371 69.5255C120.392 68.3811 122.084 65.9697 123.424 62.3494C124.044 63.0723 124.631 63.8128 125.184 64.5709C127.427 67.6444 129.14 71.0316 130.274 74.6382C130.941 76.7564 132.594 78.4232 134.697 79.0974L140.747 81.0354C142.335 81.544 143.401 83.0051 143.401 84.6719V94.7037C143.401 96.3705 142.335 97.8316 140.747 98.3402L131 101.462C129.44 101.962 128.121 103.034 127.284 104.48C123.454 111.099 117.434 116.575 109.388 120.758C108.458 121.242 107.814 122.107 107.62 123.133L104.499 139.663C104.412 140.119 104.013 140.449 103.55 140.449H93.3992C92.9356 140.449 92.5366 140.118 92.4504 139.663L90.7212 130.527C90.3808 128.73 88.695 127.536 86.8805 127.811C82.5081 128.472 78.0026 128.807 73.49 128.807C70.1328 128.807 66.8185 128.62 63.6386 128.25C61.8803 128.048 60.2424 129.247 59.9138 130.983L58.2706 139.663C58.1844 140.119 57.7854 140.449 57.3218 140.449H47.1712C46.7077 140.449 46.3087 140.118 46.2213 139.656L43.2154 124.043C43.0218 123.037 42.39 122.182 41.4811 121.697C27.7658 114.375 20.5164 102.142 20.5164 86.3223C20.5164 78.3292 22.2651 71.2613 25.7139 65.314C28.9321 59.7641 33.6325 55.1753 39.6844 51.6746C40.712 51.0801 41.0631 49.7652 40.4688 48.7374C39.8745 47.7098 38.5597 47.3593 37.5318 47.953C25.7969 54.7414 18.7192 65.2142 16.7705 78.5159V78.5156C16.5637 78.4968 16.3566 78.4789 16.1503 78.4576C16.1878 77.0224 15.9282 75.5743 15.3628 74.1688C14.1157 71.0689 11.554 68.8314 8.8363 68.4688C6.69465 68.1821 4.65657 69.0913 3.24218 70.9601C1.1914 73.67 1.52575 75.8146 2.16703 77.1364C3.24968 79.3671 6.0326 80.9451 10.6508 81.9372C10.5239 82.1273 10.3843 82.3182 10.2314 82.5101C7.50267 85.9323 4.2879 86.6889 2.20049 86.7602C0.978509 86.8014 0 87.7826 0 89.0054V89.0158C0 90.2219 0.951681 91.2056 2.15664 91.2607C2.31098 91.2679 2.47224 91.2717 2.64013 91.2717C5.28141 91.2717 9.52056 90.2975 13.5933 85.1906C14.2363 84.3846 14.7601 83.5342 15.1629 82.6555C15.5685 82.7013 15.9582 82.7406 16.3315 82.7752C16.3315 82.7743 16.3315 82.7738 16.3318 82.7729C16.2585 83.9378 16.2178 85.1196 16.2178 86.3223C16.2178 95.2731 18.3517 103.254 22.5597 110.044C26.4397 116.304 31.9948 121.429 39.0763 125.284L41.9986 140.462C42.4685 142.945 44.6439 144.748 47.1712 144.748H57.3218C59.8492 144.748 62.0246 142.945 62.4945 140.462L63.9801 132.613C67.0657 132.94 70.2603 133.106 73.4897 133.106C77.9207 133.106 82.3465 132.797 86.6598 132.188L88.2259 140.463C88.6962 142.946 90.8715 144.748 93.3986 144.748H103.549C106.077 144.748 108.252 142.946 108.722 140.462L111.762 124.367C120.349 119.826 126.822 113.861 131.004 106.633C131.306 106.112 131.77 105.73 132.311 105.557L142.058 102.435C145.432 101.353 147.7 98.2464 147.7 94.7031V84.6713C147.7 81.1283 145.432 78.0217 142.058 76.9408ZM121.528 51.3942C120.701 58.4694 118.482 64.5216 116.252 65.7846C113.717 67.2203 107.866 67.4975 103.472 64.2836C99.0735 61.066 97.6095 55.2797 99.2379 47.5503C99.2379 47.55 99.2379 47.55 99.2379 47.55C99.4015 46.7737 99.953 46.1021 100.713 45.7542C111.474 40.8282 117.679 39.2171 119.984 39.2171C120.332 39.2171 120.591 39.2537 120.763 39.3212C121.455 40.0592 122.364 44.2539 121.528 51.3942ZM6.0352 75.2593C5.81278 74.8006 6.33781 73.9943 6.67071 73.5541C7.19833 72.8571 7.68441 72.7146 8.05164 72.7146C8.12924 72.7146 8.20165 72.7209 8.268 72.7299C9.25632 72.8617 10.641 73.9493 11.3746 75.7727C11.5474 76.202 11.7718 76.9131 11.8243 77.7999C8.8487 77.1834 6.53686 76.2946 6.0352 75.2593Z" fill="url(#paint1_linear)"/>
<path d="M68.6336 26.875V19.1831C71.2861 19.3726 72.2715 20.5851 73.1808 20.5851C74.3177 20.5851 74.8482 19.1453 74.8482 18.4253C74.8482 16.5684 71.2102 15.7727 68.6336 15.6969V14.6734C68.6336 14.2187 68.065 13.8019 67.4967 13.8019C66.8522 13.8019 66.3976 14.2187 66.3976 14.6734V15.7722C62.7977 16.1512 59.1978 18.0459 59.1978 22.8205C59.1978 27.6709 62.9872 29.0351 66.3976 30.2476V39.1525C62.5323 38.8494 61.5094 36.1968 60.2588 36.1968C59.3115 36.1968 58.5159 37.4474 58.5159 38.3569C58.5159 40.2136 61.6989 42.7524 66.3976 42.8283V44.003C66.3976 44.4576 66.8525 44.8745 67.4967 44.8745C68.0653 44.8745 68.6336 44.4576 68.6336 44.003V42.7146C72.7262 42.146 75.5302 39.5694 75.5302 34.9085C75.5302 29.7552 71.9303 28.0875 68.6336 26.875ZM66.6249 26.1553C64.6166 25.3974 62.9872 24.6018 62.9872 22.442C62.9872 20.4714 64.5029 19.5241 66.6249 19.259V26.1553ZM68.406 39.0767V31.0813C70.2626 31.8769 71.7405 32.9379 71.7405 35.325C71.7405 37.4854 70.4521 38.6979 68.406 39.0767Z" fill="url(#paint2_linear)"/>
<defs>
<linearGradient id="paint0_linear" x1="117.003" y1="76.5897" x2="117.003" y2="85.7673" gradientUnits="userSpaceOnUse">
<stop stop-color="#A44298"/>
<stop offset="1" stop-color="#DD7AD1"/>
</linearGradient>
<linearGradient id="paint1_linear" x1="73.8498" y1="0" x2="73.8498" y2="144.748" gradientUnits="userSpaceOnUse">
<stop stop-color="#A44298"/>
<stop offset="1" stop-color="#DD7AD1"/>
</linearGradient>
<linearGradient id="paint2_linear" x1="67.023" y1="13.8019" x2="67.023" y2="44.8745" gradientUnits="userSpaceOnUse">
<stop stop-color="#A44298"/>
<stop offset="1" stop-color="#DD7AD1"/>
</linearGradient>
</defs>
</svg>
