<svg width="28" height="29" viewBox="0 0 28 29" fill="none" xmlns="http://www.w3.org/2000/svg">
<path d="M13.8198 7.24049C9.89481 7.24049 6.72714 10.4082 6.72714 14.3333C6.72714 18.2584 9.89481 21.4261 13.8198 21.4261C17.7448 21.4261 20.9125 18.2584 20.9125 14.3333C20.9125 10.4082 17.7448 7.24049 13.8198 7.24049ZM13.8198 18.9431C11.2815 18.9431 9.21009 16.8716 9.21009 14.3333C9.21009 11.795 11.2815 9.72349 13.8198 9.72349C16.3581 9.72349 18.4295 11.795 18.4295 14.3333C18.4295 16.8716 16.3581 18.9431 13.8198 18.9431ZM21.203 5.29697C20.2866 5.29697 19.5465 6.03703 19.5465 6.95346C19.5465 7.86988 20.2866 8.60994 21.203 8.60994C22.1194 8.60994 22.8594 7.87334 22.8594 6.95346C22.8597 6.73585 22.817 6.52032 22.7339 6.31922C22.6507 6.11813 22.5287 5.93541 22.3749 5.78153C22.221 5.62766 22.0383 5.50566 21.8372 5.42251C21.6361 5.33936 21.4206 5.2967 21.203 5.29697ZM27.6455 14.3333C27.6455 12.4244 27.6628 10.5327 27.5556 8.62723C27.4484 6.41397 26.9435 4.44971 25.3251 2.83126C23.7032 1.20935 21.7424 0.707913 19.5292 0.600708C17.6203 0.493503 15.7287 0.510794 13.8233 0.510794C11.9144 0.510794 10.0228 0.493503 8.11732 0.600708C5.9041 0.707913 3.93987 1.21281 2.32145 2.83126C0.699576 4.45316 0.198143 6.41397 0.0909406 8.62723C-0.0162622 10.5362 0.00102861 12.4278 0.00102861 14.3333C0.00102861 16.2388 -0.0162622 18.1339 0.0909406 20.0394C0.198143 22.2526 0.703034 24.2169 2.32145 25.8353C3.94332 27.4572 5.9041 27.9587 8.11732 28.0659C10.0262 28.1731 11.9178 28.1558 13.8233 28.1558C15.7322 28.1558 17.6238 28.1731 19.5292 28.0659C21.7424 27.9587 23.7067 27.4538 25.3251 25.8353C26.947 24.2134 27.4484 22.2526 27.5556 20.0394C27.6663 18.1339 27.6455 16.2422 27.6455 14.3333ZM24.6023 22.4878C24.3499 23.1172 24.0456 23.5875 23.558 24.0716C23.0704 24.5592 22.6035 24.8636 21.9741 25.116C20.1552 25.8388 15.8359 25.6763 13.8198 25.6763C11.8037 25.6763 7.48102 25.8388 5.66203 25.1195C5.03264 24.867 4.56233 24.5627 4.07819 24.0751C3.59059 23.5875 3.28628 23.1206 3.03383 22.4912C2.31453 20.6688 2.47707 16.3494 2.47707 14.3333C2.47707 12.3172 2.31453 7.99438 3.03383 6.17536C3.28628 5.54596 3.59059 5.07564 4.07819 4.59149C4.56579 4.10734 5.03264 3.79956 5.66203 3.54711C7.48102 2.8278 11.8037 2.99034 13.8198 2.99034C15.8359 2.99034 20.1586 2.8278 21.9776 3.54711C22.607 3.79956 23.0773 4.10388 23.5614 4.59149C24.049 5.0791 24.3534 5.54596 24.6058 6.17536C25.3251 7.99438 25.1626 12.3172 25.1626 14.3333C25.1626 16.3494 25.3251 20.6688 24.6023 22.4878Z" fill="#FFF3F9"/>
</svg>
