<svg width="141" height="137" viewBox="0 0 141 137" fill="none" xmlns="http://www.w3.org/2000/svg">
<rect x="3" y="41" width="96" height="96" rx="48" fill="#FFA0F3"/>
<path d="M57.5018 5.10773C59.475 4.79618 78.9898 4.79618 80.9583 5.10542C93.6028 7.4063 102.068 16.776 106.113 32.9514C109.107 44.9174 110.051 57.0103 110.826 69.3778L115.432 69.0893C114.673 57.001 113.674 44.165 110.588 31.8321C106.127 13.9928 96.1668 3.17841 81.7822 0.563663C79.5552 0.15749 58.9119 0.15749 56.6848 0.563663C49.773 1.81911 43.8488 4.97388 39.074 9.93797L42.3995 13.1389C46.4913 8.89022 51.5754 6.18778 57.5018 5.10773Z" fill="url(#paint0_linear)"/>
<path d="M131.545 115.391C127.728 115.391 124.622 118.497 124.622 122.314V124.622H129.238V122.314C129.238 121.04 130.271 120.006 131.545 120.006C132.819 120.006 133.853 121.04 133.853 122.314V123.604C133.853 125.247 133.306 126.872 132.318 128.169C132.203 128.317 132.085 128.458 131.949 128.582C130.246 130.14 127.027 132.533 124.567 131.047C122.176 129.602 121.313 123.265 120.796 119.476C120.662 118.506 120.542 117.618 120.413 116.872L115.864 117.653C115.984 118.356 116.097 119.19 116.222 120.101C116.69 123.549 117.299 127.818 118.889 131.072L103.958 130.193C96.1344 129.732 90.0049 123.228 90.0049 115.391V92.2528C96.4506 84.6071 99.4484 73.5042 102.052 63.7537C103.002 60.202 103.898 56.8442 104.904 53.8048C105.139 53.0986 105.017 52.3232 104.579 51.7232C102.702 49.1407 86.077 26.7319 74.5772 26.7319C74.4503 26.7319 74.3233 26.7342 74.1964 26.7389C72.1771 26.8289 69.3316 27.6597 67.2545 31.1214C60.8458 41.8019 34.1375 51.0377 33.8698 51.13C32.7044 51.5293 32.0582 52.7686 32.3975 53.9525C32.9975 56.0364 33.579 58.2473 34.1791 60.5297C37.0038 71.2449 40.4817 84.4063 48.4598 92.8852V115.391C48.4598 123.228 42.3302 129.732 34.5045 130.191L19.573 131.07C21.1631 127.816 21.7723 123.547 22.2408 120.099C22.3677 119.187 22.4808 118.354 22.5985 117.653C24.214 108.267 25.451 98.747 26.2772 89.3611C26.741 84.0855 27.0687 78.7129 27.3826 73.5158C27.9711 63.8507 28.578 53.8533 30.092 44.2066L25.5294 43.4889C23.9832 53.3525 23.367 63.4607 22.7762 73.2342C22.46 78.4014 22.137 83.7439 21.6777 88.9573C20.863 98.2185 19.6445 107.609 18.0498 116.872C17.9206 117.618 17.8006 118.506 17.6667 119.476C17.1498 123.265 16.2867 129.602 13.8958 131.047C12.5042 131.889 10.7018 131.589 8.53475 130.17C7.32777 129.376 6.34234 128.155 5.68461 126.632L5.33613 125.827C4.85842 124.71 4.6161 123.528 4.6161 122.314C4.6161 121.04 5.64999 120.006 6.9239 120.006C8.19781 120.006 9.23171 121.04 9.23171 122.314V124.622H13.8473V122.314C13.8473 118.497 10.741 115.391 6.9239 115.391C3.10679 115.391 0.000488281 118.497 0.000488281 122.314C0.000488281 124.165 0.372045 125.961 1.10593 127.657L1.45441 128.462C2.46984 130.816 4.04838 132.741 6.01463 134.026C8.16781 135.439 10.0487 136 11.6734 136.099L11.6757 136.154L12.0772 136.131C12.1165 136.131 12.1626 136.14 12.2019 136.14C12.5549 136.14 12.885 136.106 13.2081 136.064L34.7814 134.795C45.0419 134.195 53.08 125.67 53.08 115.391V96.8569C57.3471 99.7809 62.6182 101.558 69.2346 101.558C76.008 101.558 81.2352 99.6655 85.3893 96.603V115.391C85.3893 125.67 93.4274 134.195 103.69 134.797L125.116 136.057C125.497 136.113 125.882 136.147 126.272 136.147C126.332 136.147 126.392 136.138 126.452 136.136L126.796 136.157L126.798 136.115C129.42 135.951 132.24 134.569 135.065 131.989C135.402 131.679 135.697 131.347 135.983 130.975C137.585 128.868 138.469 126.249 138.469 123.604V122.314C138.469 118.497 135.362 115.391 131.545 115.391ZM69.2346 96.9446C48.559 96.9446 43.2926 76.9728 38.6447 59.3504C38.2316 57.7811 37.8277 56.2441 37.4192 54.7602C44.1257 52.2678 65.0044 43.8466 71.2147 33.4984C72.3109 31.6706 73.4925 31.3914 74.4018 31.3498C81.0691 31.1006 93.3673 44.4005 100.155 53.4979C99.2546 56.3388 98.4468 59.3735 97.5953 62.5652C93.0789 79.4676 88.4102 96.9446 69.2346 96.9446Z" fill="url(#paint1_linear)"/>
<path d="M3.38151 25.1072C5.62931 27.3573 8.58561 28.4812 11.5396 28.4812C12.1027 28.4812 12.6635 28.4027 13.222 28.3196C12.712 31.8067 13.7574 35.4831 16.4345 38.1601L19.1392 40.8649C19.5892 41.3149 20.18 41.5411 20.7708 41.5411C21.3616 41.5411 21.9524 41.3149 22.4024 40.8649L25.1072 38.1601C27.7842 35.4831 28.832 31.8067 28.3196 28.3196C28.8781 28.4004 29.4389 28.4812 30.002 28.4812C32.956 28.4812 35.9123 27.3573 38.1601 25.1072L40.8649 22.4024C41.7672 21.5001 41.7672 20.0416 40.8649 19.1392L38.1601 16.4345C35.4831 13.7574 31.8067 12.7097 28.3196 13.222C28.8297 9.7349 27.7842 6.05856 25.1072 3.38151L22.4024 0.676764C21.5001 -0.225588 20.0416 -0.225588 19.1392 0.676764L16.4345 3.38151C13.7574 6.05856 12.7097 9.7349 13.222 13.222C9.7349 12.712 6.05856 13.7574 3.38151 16.4345L0.676764 19.1392C-0.225588 20.0416 -0.225588 21.5001 0.676764 22.4024L3.38151 25.1072ZM25.1072 19.6977C27.7219 17.0829 32.2822 17.0829 34.8969 19.6977L35.97 20.7708L34.8969 21.844C32.2822 24.4587 27.7219 24.4587 25.1072 21.844L24.0341 20.7708L25.1072 19.6977ZM19.6977 6.64475L20.7708 5.57162L21.844 6.64475C23.1502 7.95097 23.8702 9.68874 23.8702 11.5396C23.8702 13.3905 23.1502 15.1282 21.844 16.4345L20.7708 17.5076L19.6977 16.4345C18.3915 15.1282 17.6714 13.3905 17.6714 11.5396C17.6714 9.68874 18.3915 7.95097 19.6977 6.64475ZM19.6977 25.1072L20.7708 24.0341L21.844 25.1072C23.1502 26.4134 23.8702 28.1512 23.8702 30.002C23.8702 31.8529 23.1502 33.5907 21.844 34.8969L20.7708 35.97L19.6977 34.8969C18.3915 33.5907 17.6714 31.8529 17.6714 30.002C17.6714 28.1512 18.3915 26.4134 19.6977 25.1072ZM6.64475 19.6977C9.25949 17.0829 13.8197 17.0829 16.4345 19.6977L17.5076 20.7708L16.4345 21.844C13.8197 24.4587 9.25949 24.4587 6.64475 21.844L5.57162 20.7708L6.64475 19.6977Z" fill="url(#paint2_linear)"/>
<path d="M140.1 88.3733L137.396 85.6686C134.719 82.9915 131.042 81.9438 127.555 82.4561C128.065 78.969 127.02 75.2927 124.343 72.6156L121.638 69.9109C120.736 69.0085 119.277 69.0085 118.375 69.9109L115.67 72.6156C112.993 75.2927 111.945 78.969 112.458 82.4561C108.97 81.9461 105.294 82.9915 102.617 85.6686L99.9124 88.3733C99.01 89.2757 99.01 90.7342 99.9124 91.6366L102.617 94.3413C104.867 96.5914 107.821 97.7153 110.775 97.7153C111.338 97.7153 111.899 97.6369 112.458 97.5538C111.948 101.041 112.993 104.717 115.67 107.394L118.375 110.099C118.825 110.549 119.416 110.775 120.006 110.775C120.597 110.775 121.188 110.549 121.638 110.099L124.343 107.394C127.02 104.717 128.068 101.041 127.555 97.5538C128.114 97.6346 128.675 97.7153 129.238 97.7153C132.192 97.7153 135.148 96.5914 137.396 94.3413L140.1 91.6366C141.003 90.7342 141.003 89.2757 140.1 88.3733ZM115.67 91.0781C113.055 93.6928 108.495 93.6928 105.88 91.0781L104.807 90.005L105.88 88.9318C108.495 86.3171 113.055 86.3171 115.67 88.9318L116.743 90.005L115.67 91.0781ZM121.08 104.131L120.006 105.204L118.933 104.131C117.627 102.825 116.907 101.087 116.907 99.2362C116.907 97.3853 117.627 95.6475 118.933 94.3413L120.006 93.2682L121.08 94.3413C122.386 95.6475 123.106 97.3853 123.106 99.2362C123.106 101.087 122.386 102.825 121.08 104.131ZM121.08 85.6686L120.006 86.7417L118.933 85.6686C117.627 84.3624 116.907 82.6246 116.907 80.7737C116.907 78.9229 117.627 77.1851 118.933 75.8789L120.006 74.8058L121.08 75.8789C122.386 77.1851 123.106 78.9229 123.106 80.7737C123.106 82.6246 122.386 84.3624 121.08 85.6686ZM134.132 91.0781C131.518 93.6928 126.958 93.6928 124.343 91.0781L123.27 90.005L124.343 88.9318C126.958 86.3171 131.518 86.3171 134.132 88.9318L135.206 90.005L134.132 91.0781Z" fill="url(#paint3_linear)"/>
<path d="M115.391 0.000610352H120.006V4.61622H115.391V0.000610352Z" fill="url(#paint4_linear)"/>
<path d="M120.006 4.61621H124.622V9.23182H120.006V4.61621Z" fill="url(#paint5_linear)"/>
<path d="M110.775 4.61621H115.391V9.23182H110.775V4.61621Z" fill="url(#paint6_linear)"/>
<path d="M115.391 9.23181H120.006V13.8474H115.391V9.23181Z" fill="url(#paint7_linear)"/>
<path d="M4.61621 53.0801H9.23182V57.6957H4.61621V53.0801Z" fill="url(#paint8_linear)"/>
<path d="M9.23169 57.6957H13.8473V62.3113H9.23169V57.6957Z" fill="url(#paint9_linear)"/>
<path d="M0.000488281 57.6957H4.6161V62.3113H0.000488281V57.6957Z" fill="url(#paint10_linear)"/>
<path d="M4.61621 62.3113H9.23182V66.9269H4.61621V62.3113Z" fill="url(#paint11_linear)"/>
<path d="M129.238 23.0786H133.853V27.6942H129.238V23.0786Z" fill="url(#paint12_linear)"/>
<path d="M133.853 27.6942H138.469V32.3098H133.853V27.6942Z" fill="url(#paint13_linear)"/>
<path d="M124.622 27.6942H129.238V32.3098H124.622V27.6942Z" fill="url(#paint14_linear)"/>
<path d="M129.238 32.3098H133.853V36.9254H129.238V32.3098Z" fill="url(#paint15_linear)"/>
<defs>
<linearGradient id="paint0_linear" x1="77.2531" y1="0.259033" x2="77.2531" y2="69.3778" gradientUnits="userSpaceOnUse">
<stop stop-color="#A44298"/>
<stop offset="1" stop-color="#DD7AD1"/>
</linearGradient>
<linearGradient id="paint1_linear" x1="69.2346" y1="26.7319" x2="69.2346" y2="136.157" gradientUnits="userSpaceOnUse">
<stop stop-color="#A44298"/>
<stop offset="1" stop-color="#DD7AD1"/>
</linearGradient>
<linearGradient id="paint2_linear" x1="20.7708" y1="0" x2="20.7708" y2="41.5411" gradientUnits="userSpaceOnUse">
<stop stop-color="#A44298"/>
<stop offset="1" stop-color="#DD7AD1"/>
</linearGradient>
<linearGradient id="paint3_linear" x1="120.006" y1="69.2341" x2="120.006" y2="110.775" gradientUnits="userSpaceOnUse">
<stop stop-color="#A44298"/>
<stop offset="1" stop-color="#DD7AD1"/>
</linearGradient>
<linearGradient id="paint4_linear" x1="117.699" y1="0.000610352" x2="117.699" y2="4.61622" gradientUnits="userSpaceOnUse">
<stop stop-color="#A44298"/>
<stop offset="1" stop-color="#DD7AD1"/>
</linearGradient>
<linearGradient id="paint5_linear" x1="122.314" y1="4.61621" x2="122.314" y2="9.23182" gradientUnits="userSpaceOnUse">
<stop stop-color="#A44298"/>
<stop offset="1" stop-color="#DD7AD1"/>
</linearGradient>
<linearGradient id="paint6_linear" x1="113.083" y1="4.61621" x2="113.083" y2="9.23182" gradientUnits="userSpaceOnUse">
<stop stop-color="#A44298"/>
<stop offset="1" stop-color="#DD7AD1"/>
</linearGradient>
<linearGradient id="paint7_linear" x1="117.699" y1="9.23181" x2="117.699" y2="13.8474" gradientUnits="userSpaceOnUse">
<stop stop-color="#A44298"/>
<stop offset="1" stop-color="#DD7AD1"/>
</linearGradient>
<linearGradient id="paint8_linear" x1="6.92402" y1="53.0801" x2="6.92402" y2="57.6957" gradientUnits="userSpaceOnUse">
<stop stop-color="#A44298"/>
<stop offset="1" stop-color="#DD7AD1"/>
</linearGradient>
<linearGradient id="paint9_linear" x1="11.5395" y1="57.6957" x2="11.5395" y2="62.3113" gradientUnits="userSpaceOnUse">
<stop stop-color="#A44298"/>
<stop offset="1" stop-color="#DD7AD1"/>
</linearGradient>
<linearGradient id="paint10_linear" x1="2.30829" y1="57.6957" x2="2.30829" y2="62.3113" gradientUnits="userSpaceOnUse">
<stop stop-color="#A44298"/>
<stop offset="1" stop-color="#DD7AD1"/>
</linearGradient>
<linearGradient id="paint11_linear" x1="6.92402" y1="62.3113" x2="6.92402" y2="66.9269" gradientUnits="userSpaceOnUse">
<stop stop-color="#A44298"/>
<stop offset="1" stop-color="#DD7AD1"/>
</linearGradient>
<linearGradient id="paint12_linear" x1="131.545" y1="23.0786" x2="131.545" y2="27.6942" gradientUnits="userSpaceOnUse">
<stop stop-color="#A44298"/>
<stop offset="1" stop-color="#DD7AD1"/>
</linearGradient>
<linearGradient id="paint13_linear" x1="136.161" y1="27.6942" x2="136.161" y2="32.3098" gradientUnits="userSpaceOnUse">
<stop stop-color="#A44298"/>
<stop offset="1" stop-color="#DD7AD1"/>
</linearGradient>
<linearGradient id="paint14_linear" x1="126.93" y1="27.6942" x2="126.93" y2="32.3098" gradientUnits="userSpaceOnUse">
<stop stop-color="#A44298"/>
<stop offset="1" stop-color="#DD7AD1"/>
</linearGradient>
<linearGradient id="paint15_linear" x1="131.545" y1="32.3098" x2="131.545" y2="36.9254" gradientUnits="userSpaceOnUse">
<stop stop-color="#A44298"/>
<stop offset="1" stop-color="#DD7AD1"/>
</linearGradient>
</defs>
</svg>
