<svg width="109" height="131" viewBox="0 0 109 131" fill="none" xmlns="http://www.w3.org/2000/svg">
<rect y="35" width="96" height="96" rx="48" fill="#FFA0F3"/>
<path d="M91.978 15.2454C82.0109 5.4736 68.6092 0 54.651 0C40.6928 0 27.2911 5.4736 17.324 15.2454C7.7858 24.6489 2.01777 37.2173 1.10761 50.5805C0.634568 57.8725 1.72482 65.1814 4.30536 72.018C6.83471 78.837 10.953 85.2659 16.5454 91.1257L53.399 129.741C53.5606 129.911 53.7549 130.045 53.9701 130.138C54.1853 130.23 54.4169 130.277 54.651 130.277C54.8851 130.277 55.1167 130.23 55.3319 130.138C55.5471 130.045 55.7414 129.911 55.903 129.741L92.7566 91.1257C98.349 85.2659 102.467 78.8367 104.997 72.018C107.577 65.1814 108.667 57.8725 108.194 50.5805C107.284 37.2173 101.516 24.6489 91.978 15.2454ZM101.751 70.8139C99.3855 77.1892 95.5179 83.2183 90.2526 88.7357L54.651 126.039L19.0494 88.736C13.7841 83.2192 9.91563 77.1892 7.551 70.8142C5.1415 64.4371 4.12226 57.6188 4.56153 50.8159C5.41444 38.2952 10.819 26.5192 19.7561 17.7087C29.0754 8.57662 41.6032 3.46173 54.651 3.46173C67.6987 3.46173 80.2266 8.57662 89.5459 17.7087C98.4829 26.5191 103.887 38.295 104.74 50.8156C105.18 57.6185 104.16 64.4368 101.751 70.8139Z" fill="url(#paint0_linear)"/>
<path d="M54.6511 13.7257C33.8137 13.7257 16.8608 30.6786 16.8608 51.516C16.8608 72.3535 33.8137 89.3063 54.6511 89.3063C75.4886 89.3063 92.4415 72.3538 92.4415 51.516C92.4415 30.6783 75.4886 13.7257 54.6511 13.7257ZM54.6511 85.8446C47.8616 85.8446 41.2245 83.8313 35.5792 80.0592C29.9339 76.2871 25.5339 70.9257 22.9357 64.653C20.3374 58.3803 19.6576 51.4779 20.9822 44.8188C22.3067 38.1597 25.5762 32.043 30.3772 27.242C35.1781 22.4411 41.2949 19.1716 47.954 17.847C54.6131 16.5225 61.5154 17.2023 67.7881 19.8005C74.0609 22.3988 79.4223 26.7988 83.1943 32.4441C86.9664 38.0894 88.9798 44.7265 88.9798 51.516C88.9695 60.6174 85.3495 69.3431 78.9138 75.7787C72.4782 82.2143 63.7525 85.8344 54.6511 85.8446Z" fill="url(#paint1_linear)"/>
<path d="M50.2159 51.7696C50.2159 51.3106 50.0335 50.8703 49.7089 50.5457C49.3843 50.2211 48.9441 50.0388 48.485 50.0388H44.5003V27.8472C44.5003 27.3881 44.3179 26.9479 43.9933 26.6233C43.6687 26.2987 43.2285 26.1163 42.7694 26.1163C42.3104 26.1163 41.8701 26.2987 41.5455 26.6233C41.2209 26.9479 41.0386 27.3881 41.0386 27.8472V50.0388H37.0539C36.5948 50.0344 36.1529 50.2126 35.8252 50.5342C35.4975 50.8557 35.311 51.2943 35.3067 51.7533C35.3024 52.2124 35.4806 52.6543 35.8021 52.982C36.1237 53.3096 36.5622 53.4961 37.0213 53.5005L35.752 57.8662C35.7064 58.0233 35.6833 58.186 35.6833 58.3494V71.5928C35.685 73.0659 36.2709 74.4782 37.3126 75.5198C38.3542 76.5615 39.7665 77.1474 41.2397 77.1491H44.3001C45.7732 77.1474 47.1854 76.5614 48.2271 75.5198C49.2687 74.4781 49.8547 73.0659 49.8564 71.5928V58.348C49.8563 58.1845 49.8331 58.0218 49.7875 57.8648L48.5182 53.499C48.9712 53.4903 49.4028 53.3043 49.7202 52.981C50.0376 52.6576 50.2156 52.2227 50.2159 51.7696ZM46.3944 71.5913C46.3938 72.1467 46.1729 72.6791 45.7802 73.0718C45.3876 73.4645 44.8551 73.6854 44.2998 73.686H41.2394C40.684 73.6854 40.1516 73.4645 39.7589 73.0718C39.3662 72.6791 39.1454 72.1467 39.1447 71.5913V58.5944L40.6258 53.5005H44.9131L46.3944 58.5944V71.5913Z" fill="url(#paint2_linear)"/>
<path d="M67.0612 26.0745C66.7973 25.9427 66.5041 25.8805 66.2095 25.8939C65.9148 25.9072 65.6284 25.9957 65.3775 26.1508C65.1266 26.306 64.9196 26.5227 64.776 26.7803C64.6323 27.038 64.557 27.3281 64.557 27.6231V32.8664L61.5427 34.8736L58.4208 32.6896L58.4381 27.6225C58.4392 27.3271 58.3647 27.0363 58.2217 26.7778C58.0787 26.5193 57.872 26.3016 57.6212 26.1455C57.3704 25.9894 57.0838 25.9 56.7888 25.8859C56.4937 25.8718 56.1999 25.9333 55.9353 26.0647C53.8474 27.0931 52.0903 28.6873 50.8642 30.6656C49.6381 32.6438 48.9922 34.9267 49.0001 37.2541C49.0072 39.5892 49.6654 41.876 50.9007 43.8575C52.1361 45.839 53.8996 47.4368 55.993 48.4712V71.6502C55.993 73.1079 56.5721 74.5059 57.6028 75.5367C58.6336 76.5675 60.0316 77.1465 61.4893 77.1465C62.947 77.1465 64.3451 76.5675 65.3758 75.5367C66.4066 74.5059 66.9857 73.1079 66.9857 71.6502V48.4712C69.0773 47.4456 70.8405 45.8557 72.0762 43.8809C73.3119 41.9061 73.9708 39.6252 73.9787 37.2957C73.9866 34.9663 73.343 32.681 72.1206 30.6979C70.8983 28.7149 69.1459 27.1131 67.0612 26.0734V26.0745ZM64.6493 45.7145C64.3189 45.838 64.0341 46.0594 63.833 46.3492C63.6319 46.639 63.5242 46.9833 63.5242 47.336V71.6514C63.5242 72.191 63.3099 72.7085 62.9283 73.0901C62.5468 73.4716 62.0292 73.686 61.4896 73.686C60.95 73.686 60.4325 73.4716 60.0509 73.0901C59.6694 72.7085 59.455 72.191 59.455 71.6514V47.336C59.455 46.9833 59.3473 46.639 59.1462 46.3492C58.9452 46.0594 58.6604 45.838 58.3299 45.7145C56.9298 45.1898 55.6817 44.326 54.6973 43.2004C53.713 42.0749 53.0233 40.7227 52.6899 39.2651C52.3565 37.8075 52.3898 36.29 52.787 34.8484C53.1841 33.4069 53.9326 32.0864 54.9655 31.0051L54.9565 33.5827C54.9556 33.8621 55.0223 34.1375 55.1509 34.3856C55.2796 34.6336 55.4664 34.8467 55.6953 35.0069L60.527 38.3872C60.8123 38.5868 61.1511 38.6958 61.4993 38.6998C61.8474 38.7038 62.1887 38.6027 62.4785 38.4097L67.2479 35.2339C67.4852 35.0759 67.6797 34.8617 67.8143 34.6104C67.9489 34.359 68.0193 34.0784 68.0193 33.7933V31.0121C69.0509 32.0936 69.7983 33.4141 70.1944 34.8552C70.5906 36.2964 70.6232 37.8134 70.2894 39.2703C69.9555 40.7271 69.2656 42.0785 68.2815 43.2034C67.2973 44.3283 66.0495 45.1916 64.6499 45.716L64.6493 45.7145Z" fill="url(#paint3_linear)"/>
<defs>
<linearGradient id="paint0_linear" x1="54.651" y1="0" x2="54.651" y2="130.277" gradientUnits="userSpaceOnUse">
<stop stop-color="#A44298"/>
<stop offset="1" stop-color="#DD7AD1"/>
</linearGradient>
<linearGradient id="paint1_linear" x1="54.6511" y1="13.7257" x2="54.6511" y2="89.3063" gradientUnits="userSpaceOnUse">
<stop stop-color="#A44298"/>
<stop offset="1" stop-color="#DD7AD1"/>
</linearGradient>
<linearGradient id="paint2_linear" x1="42.7613" y1="26.1163" x2="42.7613" y2="77.1491" gradientUnits="userSpaceOnUse">
<stop stop-color="#A44298"/>
<stop offset="1" stop-color="#DD7AD1"/>
</linearGradient>
<linearGradient id="paint3_linear" x1="61.4894" y1="25.8839" x2="61.4894" y2="77.1465" gradientUnits="userSpaceOnUse">
<stop stop-color="#A44298"/>
<stop offset="1" stop-color="#DD7AD1"/>
</linearGradient>
</defs>
</svg>
