<svg width="27" height="27" viewBox="0 0 27 27" fill="none" xmlns="http://www.w3.org/2000/svg">
<path fill-rule="evenodd" clip-rule="evenodd" d="M23.066 3.92425C21.8206 2.67662 20.3389 1.68734 18.7066 1.01373C17.0743 0.340123 15.3239 -0.00442681 13.5569 4.29369e-05C6.14724 4.29369e-05 0.115308 6.00186 0.112313 13.3793C0.112313 15.7371 0.73078 18.0383 1.90632 20.0682L0 27L7.12661 25.1385C9.09791 26.2065 11.3064 26.7665 13.5509 26.7675H13.5569C20.965 26.7675 26.997 20.7657 26.9999 13.3882C27.005 11.6303 26.66 9.88879 25.9848 8.26436C25.3095 6.63993 24.3175 5.16481 23.066 3.92425ZM13.5569 24.5096H13.5524C11.551 24.5098 9.58645 23.9739 7.86488 22.9581L7.45756 22.7166L3.22861 23.821L4.35623 19.7179L4.09117 19.2976C2.97222 17.5247 2.37988 15.473 2.38252 13.3793C2.38552 7.24782 7.39766 2.25948 13.5614 2.25948C15.0293 2.25623 16.4833 2.54277 17.8392 3.10252C19.1951 3.66227 20.426 4.4841 21.4607 5.52046C22.5009 6.55187 23.3254 7.77825 23.8865 9.1287C24.4476 10.4791 24.7342 11.9269 24.7297 13.3882C24.7267 19.5197 19.7146 24.5096 13.5569 24.5096ZM19.6861 16.1797C19.3492 16.0113 17.699 15.2035 17.3905 15.0918C17.0835 14.98 16.8604 14.9248 16.6357 15.2587C16.4111 15.5925 15.7672 16.3452 15.571 16.5687C15.3748 16.7923 15.1787 16.8191 14.8432 16.6522C14.5078 16.4853 13.4251 16.1321 12.1417 14.9934C11.1429 14.1066 10.469 13.0127 10.2729 12.6773C10.0767 12.342 10.2519 12.1616 10.4211 11.9947C10.5724 11.8457 10.7566 11.6042 10.9243 11.409C11.092 11.2138 11.1474 11.0752 11.2597 10.8516C11.372 10.628 11.3166 10.4328 11.2313 10.2659C11.1474 10.0975 10.475 8.45206 10.195 7.78287C9.92394 7.13455 9.6469 7.221 9.44025 7.21205C9.22622 7.20334 9.01202 7.19937 8.79782 7.20013C8.62749 7.20445 8.45989 7.24375 8.30553 7.31556C8.15118 7.38737 8.01339 7.49015 7.90082 7.61744C7.59233 7.95278 6.72528 8.76057 6.72528 10.406C6.72528 12.0514 7.92927 13.6416 8.09699 13.8652C8.26471 14.0887 10.466 17.4645 13.8354 18.9131C14.6381 19.2574 15.264 19.4631 15.7507 19.6181C16.5549 19.8729 17.2872 19.8357 17.8667 19.7507C18.5121 19.6553 19.8539 18.9429 20.1339 18.162C20.4139 17.381 20.4139 16.7118 20.3301 16.5717C20.2462 16.4316 20.0201 16.3467 19.6861 16.1797Z" fill="#FFF3F9"/>
</svg>
